<svg xmlns="http://www.w3.org/2000/svg" width="40" height="31.122" viewBox="0 0 40 31.122">
  <g id="MC_on_light" data-name="MC on light" transform="translate(12062.815 10943)">
    <path id="_Compound_Path_" data-name=" Compound Path " d="M308.454,155.745v-2.06a1.2,1.2,0,0,0-1.263-1.3,1.274,1.274,0,0,0-1.154.584,1.209,1.209,0,0,0-1.085-.584,1.123,1.123,0,0,0-.989.481v-.4h-.676v3.286h.666v-1.888a.79.79,0,0,1,.7-.869.815.815,0,0,1,.129,0c.474,0,.742.309.742.865v1.892h.666v-1.885a.793.793,0,0,1,.709-.869.8.8,0,0,1,.122,0c.488,0,.749.309.749.865v1.892Zm10.7-3.279h-1.195v-1h-.67v1H316.6v.6h.687v1.555c0,.762.268,1.216,1.112,1.216a1.677,1.677,0,0,0,.893-.254l-.206-.584a1.315,1.315,0,0,1-.632.185c-.343,0-.5-.22-.5-.549v-1.576h1.195Zm6.1-.082a1.03,1.03,0,0,0-.893.481v-.4h-.652v3.286h.659V153.9c0-.543.261-.893.728-.893a1.162,1.162,0,0,1,.447.082l.22-.622a1.529,1.529,0,0,0-.508-.089Zm-9.219.343a2.459,2.459,0,0,0-1.339-.343c-.831,0-1.339.391-1.339,1.03,0,.536.371.858,1.106.961l.343.048c.391.055.6.192.6.378,0,.254-.288.419-.776.419a1.718,1.718,0,0,1-1.092-.343l-.343.515a2.453,2.453,0,0,0,1.421.426c.948,0,1.473-.439,1.473-1.064s-.4-.862-1.113-.965l-.343-.048c-.309-.041-.584-.137-.584-.343s.261-.405.652-.405a2.12,2.12,0,0,1,1.03.282Zm9.957,1.374a1.638,1.638,0,0,0,1.555,1.717,1.594,1.594,0,0,0,.162,0,1.716,1.716,0,0,0,1.181-.391l-.343-.515a1.446,1.446,0,0,1-.858.3,1.119,1.119,0,0,1,0-2.228,1.445,1.445,0,0,1,.858.3l.343-.515a1.716,1.716,0,0,0-1.181-.392,1.638,1.638,0,0,0-1.717,1.555,1.6,1.6,0,0,0,0,.162Zm-4.621-1.717a1.587,1.587,0,0,0-1.624,1.717,1.617,1.617,0,0,0,1.514,1.715,1.511,1.511,0,0,0,.159,0,2,2,0,0,0,1.346-.46l-.343-.488a1.566,1.566,0,0,1-.955.343.965.965,0,0,1-.992-.841h2.455V154.1a1.551,1.551,0,0,0-1.548-1.717Zm0,.611a.838.838,0,0,1,.865.81v.021h-1.762a.879.879,0,0,1,.907-.831Zm-8.9,1.109v-1.638h-.659v.4a1.3,1.3,0,0,0-1.064-.481,1.725,1.725,0,1,0,0,3.451,1.3,1.3,0,0,0,1.064-.481v.4h.659Zm-2.661,0a1.03,1.03,0,0,1,.944-1.109c.028,0,.057,0,.086,0a1.119,1.119,0,0,1,0,2.228,1.03,1.03,0,0,1-1.034-1.027c0-.029,0-.057,0-.086Zm25.371-1.717a1.031,1.031,0,0,0-.893.481v-.4h-.652v3.286h.659V153.9c0-.543.261-.893.728-.893a1.163,1.163,0,0,1,.447.082l.22-.618a1.528,1.528,0,0,0-.508-.089Zm5.295,2.891a.34.34,0,0,1,.131.024.328.328,0,0,1,.179.172.321.321,0,0,1,0,.254.328.328,0,0,1-.179.172.322.322,0,0,1-.131.027.343.343,0,0,1-.309-.2.323.323,0,0,1,0-.254.34.34,0,0,1,.072-.1.415.415,0,0,1,.237-.1Zm0,.58a.244.244,0,0,0,.1-.021.261.261,0,0,0,.079-.055.254.254,0,0,0,0-.343.249.249,0,0,0-.079-.055.246.246,0,0,0-.1-.021.255.255,0,0,0-.1.021.248.248,0,0,0-.082.055.254.254,0,0,0,0,.343.257.257,0,0,0,.082.055.252.252,0,0,0,.1.014Zm.021-.409a.137.137,0,0,1,.089.027.087.087,0,0,1,.031.072.082.082,0,0,1-.024.062.119.119,0,0,1-.072.031l.1.113h-.079l-.093-.113h-.031v.113h-.065v-.3Zm-.075.058v.082h.075a.069.069,0,0,0,.041,0,.035.035,0,0,0,0-.031.035.035,0,0,0,0-.031.077.077,0,0,0-.041,0Zm-7.77-1.4v-1.645h-.659v.4a1.3,1.3,0,0,0-1.064-.481,1.725,1.725,0,1,0,0,3.451,1.3,1.3,0,0,0,1.064-.481v.4h.659Zm-2.661,0a1.03,1.03,0,0,1,.944-1.109c.028,0,.057,0,.086,0a1.119,1.119,0,0,1,0,2.228,1.03,1.03,0,0,1-1.034-1.027c0-.029,0-.057,0-.086Zm9.295,0v-2.97h-.659v1.717a1.3,1.3,0,0,0-1.064-.481,1.725,1.725,0,1,0,0,3.451,1.3,1.3,0,0,0,1.064-.481v.4h.659Zm-2.661,0a1.03,1.03,0,0,1,.944-1.109c.029,0,.057,0,.086,0a1.119,1.119,0,0,1-.014,2.215,1.03,1.03,0,0,1-1.033-1.027c0-.027,0-.055,0-.082Z" transform="translate(-12364.029 -11067.805)"/>
    <rect id="Rectangle_3388" data-name="Rectangle 3388" width="10.816" height="19.438" transform="translate(-12048.224 -10940.355)" fill="#ff5f00"/>
    <path id="_Path_2" data-name=" Path 2" d="M312.528,86.813a12.339,12.339,0,0,1,4.721-9.717,12.361,12.361,0,1,0,0,19.438A12.34,12.34,0,0,1,312.528,86.813Z" transform="translate(-12360.065 -11017.449)" fill="#eb001b"/>
    <path id="Path_5006" data-name="Path 5006" d="M409.863,131.841v-.4h.161v-.082h-.409v.082h.161v.4Zm.793,0v-.481h-.124l-.144.343-.144-.343h-.124v.481h.086v-.364l.134.313h.093l.134-.313v.364Z" transform="translate(-12433.85 -11054.816)" fill="#f79e1b"/>
    <path id="Path_5007" data-name="Path 5007" d="M375.5,86.8a12.361,12.361,0,0,1-20,9.717,12.361,12.361,0,0,0,0-19.438,12.361,12.361,0,0,1,20,9.717Z" transform="translate(-12398.313 -11017.439)" fill="#f79e1b"/>
  </g>
</svg>
